# xmcd
#
# Track frame offsets:
#        182
#        23582
#        40587
#        61687
#        94075
#        119927
#        143892
#        165572
#        191472
#        210330
#
# Disc length: 3003 seconds
#
# Revision: 8
# Processed by: cddbd v1.5.2PL0 Copyright (c) Steve Scherf et al.
# Submitted via: jack 3.1.1
#
DISCID=7e0bb90a
DTITLE=Fleetwood Mac - In Chicago CD2
DYEAR=1969
DGENRE=Blues
TTITLE0=World's In A Tangle  -  feat. Otis Spann
TTITLE1=Talk With You
TTITLE2=Like It This Way  -  feat. Otis Spann
TTITLE3=Someday Soon Baby
TTITLE4=Hungry Country Girl  -  feat. Otis Spann
TTITLE5=Black Jack Blues  -  feat. J.T. Brown voc and sax
TTITLE6=Everyday I Have The Blues
TTITLE7=Rockin' Boogie
TTITLE8=Sugar Mama
TTITLE9=Homework  -  feat. Otis Spann
EXTD=
EXTT0=
EXTT1=
EXTT2=
EXTT3=
EXTT4=
EXTT5=
EXTT6=
EXTT7=
EXTT8=
EXTT9=
PLAYORDER=
